<?xml version="1.0" encoding="UTF-8"?>
<svg width="128px" height="128px" viewBox="0 0 128 128" version="1.1" xmlns="http://www.w3.org/2000/svg" xmlns:xlink="http://www.w3.org/1999/xlink">
    <g stroke="none" stroke-width="1" fill="none" fill-rule="evenodd">
        <g transform="translate(-224.000000, -224.000000)" fill="#000000">
            <g transform="translate(112.000000, 112.000000)">
                <path d="M112,112 L16,112 C7.16923828,112 0,104.830762 0,96 L0,16 C0,7.16923828 7.16923828,0 16,0 L112,0 C120.830762,0 128,7.16923828 128,16 L128,96 C128,104.830762 120.830762,112 112,112 Z"/>
                <path d="M112,112 L16,112 C7.16923828,112 0,104.830762 0,96 L0,16 C0,7.16923828 7.16923828,0 16,0 L112,0 C120.830762,0 128,7.16923828 128,16 L128,96 C128,104.830762 120.830762,112 112,112 Z"/>
                <path d="M64,64 L64,112 L16,112 C7.16923828,112 0,104.830762 0,96 L0,16 C0,7.16923828 7.16923828,0 16,0 L64,0 L64,48 L112,48 L112,0 C120.830762,0 128,7.16923828 128,16 L128,96 C128,104.830762 120.830762,112 112,112 L64,112 Z"/>
            </g>
        </g>
    </g>
</svg>
